<svg xmlns="http://www.w3.org/2000/svg" version="1.1" xmlns:xlink="http://www.w3.org/1999/xlink" xmlns:svgjs="http://svgjs.dev/svgjs" width="2000" height="212" viewBox="0 0 2000 212"><g transform="matrix(1,0,0,1,-1.2121212121212466,1.2601048686571232)"><svg viewBox="0 0 396 42" data-background-color="#293040" preserveAspectRatio="xMidYMid meet" height="212" width="2000" xmlns="http://www.w3.org/2000/svg" xmlns:xlink="http://www.w3.org/1999/xlink"><g id="tight-bounds" transform="matrix(1,0,0,1,0.2400000000000091,-0.24964341737546647)"><svg viewBox="0 0 395.52 42.49928683475095" height="42.49928683475095" width="395.52"><g><svg viewBox="0 0 428.1509716585324 46.00553942428523" height="42.49928683475095" width="395.52"><g transform="matrix(1,0,0,1,0,6.358218545613951)"><svg viewBox="0 0 395.52 33.28910233305733" height="33.28910233305733" width="395.52"><g id="textblocktransform"><svg viewBox="0 0 395.52 33.28910233305733" height="33.28910233305733" width="395.52" id="textblock"><g><svg viewBox="0 0 395.52 33.28910233305733" height="33.28910233305733" width="395.52"><g transform="matrix(1,0,0,1,0,0)"><svg width="395.52" viewBox="2.27 -40.43 496.5 42.19" height="33.28910233305733" data-palette-color="#dee0e4"><g class="wordmark-text-0" data-fill-palette-color="primary" id="text-0"><path d="M31.37 0L31.37-14.75 33.13-18.07 33.13 0 31.37 0ZM34.89 0L34.89-21.48 36.65-24.8 36.65 0 34.89 0ZM38.4 0L38.4-28.13 40.16-31.47 40.16 0 38.4 0ZM39.7-40.43L26.61-15.58 25.61-17.41 37.72-40.43 39.7-40.43ZM35.72-40.43L24.58-19.41 23.56-21.26 33.72-40.43 35.72-40.43ZM12.82 0L12.82-17.87 14.58-14.55 14.58 0 12.82 0ZM9.3 0L9.3-24.56 11.06-21.24 11.06 0 9.3 0ZM5.79 0L5.79-31.25 7.54-27.91 7.54 0 5.79 0ZM4.25-40.43L20-10.55 18.02-10.55 4.03-37.08 4.03 0 2.27 0 2.27-40.43 4.25-40.43ZM8.25-40.43L23.97-10.55 21.97-10.55 6.25-40.43 8.25-40.43ZM41.92 0L41.92-37.08 27.93-10.55 25.93-10.55 10.23-40.43 12.21-40.43 26.95-12.4 41.67-40.43 43.68-40.43 43.68 0 41.92 0ZM73.26 0L73.26-17.33Q73.26-20.46 71.34-22.17 69.41-23.88 66.23-23.88L66.23-23.88Q63.55-23.88 61.62-22.02 59.69-20.17 59.69-17.58L59.69-17.58Q59.69-16.11 60.08-14.95 60.47-13.79 61.14-13.02 61.81-12.26 62.74-11.76 63.67-11.25 64.68-11.04 65.7-10.82 66.84-10.82L66.84-10.82Q69.63-10.82 71.92-12.18L71.92-12.18 71.92-10.42Q69.55-9.18 66.82-9.18L66.82-9.18Q65.06-9.18 63.51-9.66 61.96-10.13 60.69-11.1 59.42-12.06 58.68-13.73 57.93-15.41 57.93-17.58L57.93-17.58Q57.93-20.95 60.3-23.29 62.67-25.63 66.23-25.63L66.23-25.63Q70.16-25.63 72.59-23.43 75.02-21.22 75.02-17.33L75.02-17.33 75.02 0 73.26 0ZM78.54-17.33L78.54-17.33 78.54 0 76.78 0 76.78-17.33Q76.78-21.95 73.83-24.67 70.87-27.39 66.23-27.39L66.23-27.39Q61.94-27.39 59.06-24.54 56.17-21.68 56.17-17.58L56.17-17.58Q56.17-15.09 57.04-13.11 57.91-11.13 59.4-9.94 60.89-8.74 62.73-8.12 64.57-7.5 66.62-7.5L66.62-7.5Q69.41-7.5 71.92-8.79L71.92-8.79 71.92-6.93Q69.28-5.83 66.6-5.83L66.6-5.83Q64.18-5.83 62.01-6.58 59.84-7.32 58.13-8.75 56.42-10.18 55.42-12.46 54.42-14.75 54.42-17.58L54.42-17.58Q54.42-22.39 57.82-25.77 61.23-29.15 66.23-29.15L66.23-29.15Q69.75-29.15 72.53-27.72 75.31-26.29 76.93-23.58 78.54-20.87 78.54-17.33ZM82.05-17.33L82.05-17.33 82.05 0 80.3 0 80.3-17.33Q80.3-21.36 78.45-24.48 76.61-27.59 73.41-29.25 70.21-30.91 66.23-30.91L66.23-30.91Q62.45-30.91 59.32-29.11 56.2-27.32 54.43-24.27 52.66-21.22 52.66-17.58L52.66-17.58Q52.66-14.45 53.81-11.88 54.95-9.3 56.89-7.64 58.84-5.98 61.31-5.07 63.79-4.15 66.5-4.15L66.5-4.15Q69.26-4.15 71.92-5.3L71.92-5.3 71.92-3.52Q69.14-2.47 66.45-2.47L66.45-2.47Q62.23-2.47 58.69-4.37 55.15-6.27 53.02-9.77 50.9-13.26 50.9-17.58L50.9-17.58Q50.9-20.65 52.08-23.44 53.27-26.22 55.3-28.25 57.32-30.27 60.18-31.47 63.03-32.67 66.23-32.67L66.23-32.67Q70.7-32.67 74.3-30.76 77.9-28.86 79.98-25.34 82.05-21.83 82.05-17.33ZM85.57-17.33L85.57-17.33 85.57 0 83.81 0 83.81-17.33Q83.81-22.31 81.49-26.23 79.17-30.15 75.17-32.29 71.16-34.42 66.23-34.42L66.23-34.42Q61.5-34.42 57.57-32.15 53.64-29.88 51.39-26.01 49.14-22.14 49.14-17.58L49.14-17.58Q49.14-14.58 50.11-11.88 51.07-9.18 52.74-7.17 54.42-5.15 56.6-3.69 58.79-2.22 61.31-1.46 63.84-0.71 66.45-0.71L66.45-0.71Q69.33-0.71 71.92-1.81L71.92-1.81 71.92 0Q69.21 0.95 66.35 0.95L66.35 0.95Q63.4 0.95 60.61 0.12 57.81-0.71 55.43-2.33 53.05-3.96 51.24-6.16 49.44-8.37 48.41-11.33 47.39-14.28 47.39-17.58L47.39-17.58Q47.39-21.36 48.81-24.79 50.24-28.22 52.72-30.73 55.2-33.23 58.73-34.7 62.25-36.18 66.23-36.18L66.23-36.18Q70.29-36.18 73.85-34.81 77.41-33.45 80-31.02 82.59-28.59 84.08-25.05 85.57-21.51 85.57-17.33ZM114.64-12.62L114.64-17.82 116.4-17.82 116.4 0Q112.5 1.76 108.32 1.76L108.32 1.76Q104.39 1.76 100.81 0.22 97.24-1.32 94.65-3.91 92.06-6.49 90.52-10.07 88.98-13.65 88.98-17.58 88.98-21.51 90.52-25.09 92.06-28.66 94.65-31.25 97.24-33.84 100.81-35.38 104.39-36.91 108.32-36.91L108.32-36.91Q112.81-36.91 116.77-34.97 120.72-33.03 123.43-29.64L123.43-29.64 122.02-28.59Q119.55-31.64 115.97-33.4 112.4-35.16 108.32-35.16L108.32-35.16Q104.76-35.16 101.5-33.76 98.24-32.37 95.88-30.02 93.53-27.66 92.13-24.4 90.74-21.14 90.74-17.58 90.74-14.01 92.13-10.75 93.53-7.5 95.88-5.14 98.24-2.78 101.5-1.39 104.76 0 108.32 0L108.32 0Q111.62 0 114.64-1.17L114.64-1.17 114.64-2.98Q111.59-1.76 108.32-1.76L108.32-1.76Q105.1-1.76 102.17-3.02 99.24-4.27 97.13-6.38 95.01-8.5 93.76-11.43 92.5-14.36 92.5-17.58 92.5-20.8 93.76-23.73 95.01-26.66 97.13-28.77 99.24-30.88 102.17-32.14 105.1-33.4 108.32-33.4L108.32-33.4Q112.01-33.4 115.24-31.81 118.48-30.22 120.7-27.44L120.7-27.44 119.33-26.34Q117.35-28.81 114.47-30.22 111.59-31.64 108.32-31.64L108.32-31.64Q105.46-31.64 102.86-30.53 100.26-29.42 98.37-27.53 96.48-25.63 95.37-23.03 94.26-20.43 94.26-17.58 94.26-14.72 95.37-12.12 96.48-9.52 98.37-7.63 100.26-5.74 102.86-4.63 105.46-3.52 108.32-3.52L108.32-3.52Q111.69-3.52 114.64-4.88L114.64-4.88 114.64-6.69Q111.69-5.27 108.32-5.27L108.32-5.27Q104.98-5.27 102.14-6.92 99.31-8.57 97.66-11.4 96.02-14.23 96.02-17.58 96.02-20.92 97.66-23.75 99.31-26.59 102.14-28.23 104.98-29.88 108.32-29.88L108.32-29.88Q111.18-29.88 113.7-28.65 116.23-27.42 117.94-25.24L117.94-25.24 116.55-24.17Q115.08-26.03 112.92-27.08 110.76-28.13 108.32-28.13L108.32-28.13Q103.95-28.13 100.86-25.02 97.77-21.92 97.77-17.58 97.77-13.23 100.86-10.13 103.95-7.03 108.32-7.03L108.32-7.03Q111.74-7.03 114.64-8.69L114.64-8.69 114.64-10.47Q111.79-8.79 108.32-8.79L108.32-8.79Q104.68-8.79 102.11-11.36 99.53-13.94 99.53-17.58 99.53-21.22 102.11-23.79 104.68-26.37 108.32-26.37L108.32-26.37Q110.37-26.37 112.18-25.48 113.98-24.58 115.2-23.05L115.2-23.05 113.79-21.97Q111.66-24.61 108.32-24.61L108.32-24.61Q105.41-24.61 103.35-22.55 101.29-20.48 101.29-17.58 101.29-14.67 103.35-12.61 105.41-10.55 108.32-10.55L108.32-10.55Q112.06-10.55 114.64-12.62L114.64-12.62ZM125.19 0L125.19-17.82 126.95-17.82 126.95 0 125.19 0ZM121.67 0L121.67-17.82 123.43-17.82 123.43 0 121.67 0ZM118.16 0L118.16-17.82 119.92-17.82 119.92 0 118.16 0ZM141.81 0L141.81-35.16 143.57-35.16 143.57 0 141.81 0ZM138.3 0L138.3-35.16 140.06-35.16 140.06 0 138.3 0ZM134.78 0L134.78-35.16 136.54-35.16 136.54 0 134.78 0ZM131.27 0L131.27-35.16 133.02-35.16 133.02 0 131.27 0ZM173.45-23.05L173.45-23.05 172.04-21.97Q169.91-24.61 166.57-24.61L166.57-24.61Q163.66-24.61 161.6-22.55 159.54-20.48 159.54-17.58 159.54-14.67 161.6-12.61 163.66-10.55 166.57-10.55L166.57-10.55Q168.2-10.55 169.63-11.25 171.06-11.96 172.06-13.21L172.06-13.21 173.43-12.06Q172.21-10.52 170.4-9.66 168.59-8.79 166.57-8.79L166.57-8.79Q162.93-8.79 160.35-11.36 157.78-13.94 157.78-17.58 157.78-21.22 160.35-23.79 162.93-26.37 166.57-26.37L166.57-26.37Q168.62-26.37 170.42-25.48 172.23-24.58 173.45-23.05ZM176.19-25.24L176.19-25.24 174.79-24.17Q173.33-26.03 171.17-27.08 169.01-28.13 166.57-28.13L166.57-28.13Q162.2-28.13 159.11-25.02 156.02-21.92 156.02-17.58 156.02-13.23 159.11-10.13 162.2-7.03 166.57-7.03L166.57-7.03Q169.01-7.03 171.18-8.09 173.35-9.16 174.82-11.01L174.82-11.01 176.16-9.89Q174.45-7.74 171.94-6.51 169.42-5.27 166.57-5.27L166.57-5.27Q163.22-5.27 160.39-6.92 157.56-8.57 155.91-11.4 154.26-14.23 154.26-17.58 154.26-20.92 155.91-23.75 157.56-26.59 160.39-28.23 163.22-29.88 166.57-29.88L166.57-29.88Q169.42-29.88 171.95-28.65 174.48-27.42 176.19-25.24ZM178.95-27.44L178.95-27.44 177.58-26.34Q175.6-28.81 172.72-30.22 169.84-31.64 166.57-31.64L166.57-31.64Q163.71-31.64 161.11-30.53 158.51-29.42 156.62-27.53 154.73-25.63 153.62-23.03 152.5-20.43 152.5-17.58 152.5-14.72 153.62-12.12 154.73-9.52 156.62-7.63 158.51-5.74 161.11-4.63 163.71-3.52 166.57-3.52L166.57-3.52Q169.84-3.52 172.72-4.93 175.6-6.35 177.58-8.81L177.58-8.81 178.9-7.67Q176.67-4.91 173.45-3.33 170.23-1.76 166.57-1.76L166.57-1.76Q163.34-1.76 160.41-3.02 157.49-4.27 155.37-6.38 153.26-8.5 152-11.43 150.75-14.36 150.75-17.58 150.75-20.8 152-23.73 153.26-26.66 155.37-28.77 157.49-30.88 160.41-32.14 163.34-33.4 166.57-33.4L166.57-33.4Q170.25-33.4 173.49-31.81 176.72-30.22 178.95-27.44ZM181.68-29.64L181.68-29.64 180.26-28.59Q177.8-31.64 174.22-33.4 170.64-35.16 166.57-35.16L166.57-35.16Q163-35.16 159.74-33.76 156.48-32.37 154.13-30.02 151.77-27.66 150.38-24.4 148.99-21.14 148.99-17.58 148.99-14.01 150.38-10.75 151.77-7.5 154.13-5.14 156.48-2.78 159.74-1.39 163 0 166.57 0L166.57 0Q170.64 0 174.22-1.76 177.8-3.52 180.26-6.57L180.26-6.57 181.66-5.49Q178.95-2.12 175-0.18 171.06 1.76 166.57 1.76L166.57 1.76Q162.64 1.76 159.06 0.22 155.48-1.32 152.9-3.91 150.31-6.49 148.77-10.07 147.23-13.65 147.23-17.58 147.23-21.51 148.77-25.09 150.31-28.66 152.9-31.25 155.48-33.84 159.06-35.38 162.64-36.91 166.57-36.91L166.57-36.91Q171.06-36.91 175.01-34.97 178.97-33.03 181.68-29.64Z" fill="#dee0e4" data-fill-palette-color="primary"></path><path d="M201.67-40.43L201.67 0 199.91 0 199.91-40.43 201.67-40.43ZM198.16-40.43L198.16 0 196.4 0 196.4-40.43 198.16-40.43ZM194.64-40.43L194.64 0 192.88 0 192.88-40.43 194.64-40.43ZM191.13-40.43L191.13 0 189.37 0 189.37-40.43 191.13-40.43ZM224.84 0L214.51-20.21 224.84-40.43 226.79-40.43 216.47-20.21 226.79 0 224.84 0ZM220.91 0L210.58-20.21 220.91-40.43 222.86-40.43 212.54-20.21 222.86 0 220.91 0ZM216.98 0L206.65-20.21 216.98-40.43 218.93-40.43 208.61-20.21 218.93 0 216.98 0ZM213.05 0L202.7-20.21 213.05-40.43 215-40.43 204.65-20.21 215 0 213.05 0ZM238.95-35.16L238.95 0 237.19 0 237.19-35.16 238.95-35.16ZM235.43-35.16L235.43 0 233.68 0 233.68-35.16 235.43-35.16ZM231.92-35.16L231.92 0 230.16 0 230.16-35.16 231.92-35.16ZM242.47-13.21L242.47-8.79 259.29-8.79 259.29-7.03 242.47-7.03 242.47-5.27 259.29-5.27 259.29-3.52 242.47-3.52 242.47-1.76 259.29-1.76 259.29 0 240.71 0 240.71-35.16 259.29-35.16 259.29-33.4 242.47-33.4 242.47-31.64 259.29-31.64 259.29-29.88 242.47-29.88 242.47-28.13 259.29-28.13 259.29-26.37 242.47-26.37 242.47-22 258.31-22 258.31-20.24 242.47-20.24 242.47-18.48 258.31-18.48 258.31-16.72 242.47-16.72 242.47-14.97 258.31-14.97 258.31-13.21 242.47-13.21ZM284.36-11.87L295.42-35.16 297.18-35.16 286.12-11.87 286.12 0 284.36 0 284.36-11.87ZM280.84-11.87L291.9-35.16 293.66-35.16 282.6-11.87 282.6 0 280.84 0 280.84-11.87ZM277.33-11.87L288.39-35.16 290.14-35.16 279.08-11.87 279.08 0 277.33 0 277.33-11.87ZM274.67-13.65L284.87-35.16 286.63-35.16 275.57-11.87 275.57 0 273.81 0 273.81-11.87 262.02-35.16 263.78-35.16 274.67-13.65ZM275.15-16.65L265.56-35.16 267.32-35.16 276.03-18.58 275.15-16.65ZM276.89-20.51L269.07-35.16 270.86-35.16 277.79-22.44 276.89-20.51ZM278.67-24.34L272.64-35.16 274.4-35.16 279.55-26.27 278.67-24.34ZM327.71-17.77L327.71-17.77 327.67-17.8Q330.42-20.48 330.42-24.34L330.42-24.34Q330.42-28 327.7-30.7 324.98-33.4 321.27-33.4L321.27-33.4 301.93-33.4 301.93 0 300.18 0 300.18-35.16 321.27-35.16Q324.15-35.16 326.68-33.68 329.2-32.2 330.69-29.7 332.18-27.2 332.18-24.34L332.18-24.34Q332.18-20.43 330.08-17.63L330.08-17.63Q332.18-14.72 332.18-11.23L332.18-11.23Q332.18-7.89 330.67-5.33 329.16-2.78 326.7-1.49 324.25-0.2 321.27-0.2L321.27-0.2 310.16-0.2 310.16-1.95 321.27-1.95Q325.03-1.95 327.73-4.63 330.42-7.3 330.42-11.23L330.42-11.23Q330.42-13.04 329.64-14.79 328.86-16.55 327.69-17.75L327.69-17.75Q327.69-17.77 327.71-17.77ZM321.27-8.98L321.27-8.98 310.16-8.98 310.16-7.23 321.27-7.23Q322.88-7.23 324.02-8.31 325.15-9.4 325.15-11.23L325.15-11.23Q325.15-12.82 323.98-14.03 322.81-15.23 321.27-15.23L321.27-15.23 310.14-15.23 310.14-13.48 321.27-13.48Q322.1-13.48 322.75-12.79 323.39-12.11 323.39-11.23L323.39-11.23Q323.39-10.16 322.78-9.57 322.17-8.98 321.27-8.98ZM321.27-5.47L321.27-5.47 310.16-5.47 310.16-3.71 321.27-3.71Q324.3-3.71 326.48-5.87 328.67-8.03 328.67-11.23L328.67-11.23Q328.67-13.26 327.58-15.05 326.49-16.85 324.71-17.82L324.71-17.82Q326.49-18.75 327.58-20.47 328.67-22.19 328.67-24.34L328.67-24.34Q328.67-27.27 326.46-29.46 324.25-31.64 321.27-31.64L321.27-31.64 303.69-31.64 303.69 0 305.45 0 305.45-29.88 321.27-29.88Q323.52-29.88 325.21-28.21 326.91-26.54 326.91-24.34L326.91-24.34Q326.91-21.9 325.25-20.32 323.59-18.75 321.27-18.75L321.27-18.75 315.9-18.75 310.16-18.75 310.16-16.99 315.9-16.99 321.27-16.99Q323.52-16.99 325.21-15.26 326.91-13.53 326.91-11.23L326.91-11.23Q326.91-8.69 325.25-7.08 323.59-5.47 321.27-5.47ZM321.27-22.27L321.27-22.27 310.16-22.27 310.16-20.51 321.27-20.51Q322.91-20.51 324.03-21.55 325.15-22.58 325.15-24.34L325.15-24.34Q325.15-25.83 323.98-26.98 322.81-28.13 321.27-28.13L321.27-28.13 307.21-28.13 307.21 0 308.96 0 308.96-26.37 321.27-26.37Q322.1-26.37 322.75-25.74 323.39-25.12 323.39-24.34L323.39-24.34Q323.39-23.34 322.78-22.8 322.17-22.27 321.27-22.27ZM349.65-22.55Q347.59-20.48 347.59-17.58 347.59-14.67 349.65-12.61 351.71-10.55 354.62-10.55 357.52-10.55 359.58-12.61 361.65-14.67 361.65-17.58 361.65-20.48 359.58-22.55 357.52-24.61 354.62-24.61 351.71-24.61 349.65-22.55ZM348.4-11.36Q345.83-13.94 345.83-17.58 345.83-21.22 348.4-23.79 350.98-26.37 354.62-26.37 358.25-26.37 360.83-23.79 363.41-21.22 363.41-17.58 363.41-13.94 360.83-11.36 358.25-8.79 354.62-8.79 350.98-8.79 348.4-11.36ZM347.16-25.02Q344.07-21.92 344.07-17.58 344.07-13.23 347.16-10.13 350.25-7.03 354.62-7.03 358.99-7.03 362.08-10.13 365.16-13.23 365.16-17.58 365.16-21.92 362.08-25.02 358.99-28.13 354.62-28.13 350.25-28.13 347.16-25.02ZM343.96-11.4Q342.31-14.23 342.31-17.58 342.31-20.92 343.96-23.75 345.61-26.59 348.44-28.23 351.27-29.88 354.62-29.88 357.96-29.88 360.79-28.23 363.63-26.59 365.27-23.75 366.92-20.92 366.92-17.58 366.92-14.23 365.27-11.4 363.63-8.57 360.79-6.92 357.96-5.27 354.62-5.27 351.27-5.27 348.44-6.92 345.61-8.57 343.96-11.4ZM341.67-23.03Q340.55-20.43 340.55-17.58 340.55-14.72 341.67-12.12 342.78-9.52 344.67-7.63 346.56-5.74 349.16-4.63 351.76-3.52 354.62-3.52 357.47-3.52 360.07-4.63 362.67-5.74 364.57-7.63 366.46-9.52 367.57-12.12 368.68-14.72 368.68-17.58 368.68-20.43 367.57-23.03 366.46-25.63 364.57-27.53 362.67-29.42 360.07-30.53 357.47-31.64 354.62-31.64 351.76-31.64 349.16-30.53 346.56-29.42 344.67-27.53 342.78-25.63 341.67-23.03ZM340.05-11.43Q338.8-14.36 338.8-17.58 338.8-20.8 340.05-23.73 341.31-26.66 343.42-28.77 345.53-30.88 348.46-32.14 351.39-33.4 354.62-33.4 357.84-33.4 360.77-32.14 363.7-30.88 365.81-28.77 367.92-26.66 369.18-23.73 370.44-20.8 370.44-17.58 370.44-14.36 369.18-11.43 367.92-8.5 365.81-6.38 363.7-4.27 360.77-3.02 357.84-1.76 354.62-1.76 351.39-1.76 348.46-3.02 345.53-4.27 343.42-6.38 341.31-8.5 340.05-11.43ZM338.43-24.4Q337.04-21.14 337.04-17.58 337.04-14.01 338.43-10.75 339.82-7.5 342.18-5.14 344.53-2.78 347.79-1.39 351.05 0 354.62 0 358.18 0 361.44-1.39 364.7-2.78 367.06-5.14 369.41-7.5 370.8-10.75 372.19-14.01 372.19-17.58 372.19-21.14 370.8-24.4 369.41-27.66 367.06-30.02 364.7-32.37 361.44-33.76 358.18-35.16 354.62-35.16 351.05-35.16 347.79-33.76 344.53-32.37 342.18-30.02 339.82-27.66 338.43-24.4ZM336.82-10.07Q335.28-13.65 335.28-17.58 335.28-21.51 336.82-25.09 338.36-28.66 340.94-31.25 343.53-33.84 347.11-35.38 350.69-36.91 354.62-36.91 358.55-36.91 362.12-35.38 365.7-33.84 368.29-31.25 370.88-28.66 372.41-25.09 373.95-21.51 373.95-17.58 373.95-13.65 372.41-10.07 370.88-6.49 368.29-3.91 365.7-1.32 362.12 0.22 358.55 1.76 354.62 1.76 350.69 1.76 347.11 0.22 343.53-1.32 340.94-3.91 338.36-6.49 336.82-10.07ZM402.83 0L402.83-17.33Q402.83-20.46 400.9-22.17 398.97-23.88 395.8-23.88L395.8-23.88Q393.12-23.88 391.19-22.02 389.26-20.17 389.26-17.58L389.26-17.58Q389.26-16.11 389.65-14.95 390.04-13.79 390.71-13.02 391.38-12.26 392.31-11.76 393.24-11.25 394.25-11.04 395.26-10.82 396.41-10.82L396.41-10.82Q399.19-10.82 401.49-12.18L401.49-12.18 401.49-10.42Q399.12-9.18 396.39-9.18L396.39-9.18Q394.63-9.18 393.08-9.66 391.53-10.13 390.26-11.1 388.99-12.06 388.24-13.73 387.5-15.41 387.5-17.58L387.5-17.58Q387.5-20.95 389.87-23.29 392.24-25.63 395.8-25.63L395.8-25.63Q399.73-25.63 402.16-23.43 404.59-21.22 404.59-17.33L404.59-17.33 404.59 0 402.83 0ZM408.11-17.33L408.11-17.33 408.11 0 406.35 0 406.35-17.33Q406.35-21.95 403.39-24.67 400.44-27.39 395.8-27.39L395.8-27.39Q391.5-27.39 388.62-24.54 385.74-21.68 385.74-17.58L385.74-17.58Q385.74-15.09 386.61-13.11 387.48-11.13 388.96-9.94 390.45-8.74 392.3-8.12 394.14-7.5 396.19-7.5L396.19-7.5Q398.97-7.5 401.49-8.79L401.49-8.79 401.49-6.93Q398.85-5.83 396.17-5.83L396.17-5.83Q393.75-5.83 391.58-6.58 389.4-7.32 387.7-8.75 385.99-10.18 384.99-12.46 383.98-14.75 383.98-17.58L383.98-17.58Q383.98-22.39 387.39-25.77 390.8-29.15 395.8-29.15L395.8-29.15Q399.32-29.15 402.1-27.72 404.88-26.29 406.49-23.58 408.11-20.87 408.11-17.33ZM411.62-17.33L411.62-17.33 411.62 0 409.86 0 409.86-17.33Q409.86-21.36 408.02-24.48 406.18-27.59 402.98-29.25 399.78-30.91 395.8-30.91L395.8-30.91Q392.02-30.91 388.89-29.11 385.77-27.32 384-24.27 382.23-21.22 382.23-17.58L382.23-17.58Q382.23-14.45 383.37-11.88 384.52-9.3 386.46-7.64 388.4-5.98 390.88-5.07 393.36-4.15 396.07-4.15L396.07-4.15Q398.83-4.15 401.49-5.3L401.49-5.3 401.49-3.52Q398.71-2.47 396.02-2.47L396.02-2.47Q391.8-2.47 388.26-4.37 384.72-6.27 382.59-9.77 380.47-13.26 380.47-17.58L380.47-17.58Q380.47-20.65 381.65-23.44 382.84-26.22 384.86-28.25 386.89-30.27 389.75-31.47 392.6-32.67 395.8-32.67L395.8-32.67Q400.27-32.67 403.87-30.76 407.47-28.86 409.55-25.34 411.62-21.83 411.62-17.33ZM415.14-17.33L415.14-17.33 415.14 0 413.38 0 413.38-17.33Q413.38-22.31 411.06-26.23 408.74-30.15 404.74-32.29 400.73-34.42 395.8-34.42L395.8-34.42Q391.06-34.42 387.13-32.15 383.2-29.88 380.96-26.01 378.71-22.14 378.71-17.58L378.71-17.58Q378.71-14.58 379.68-11.88 380.64-9.18 382.31-7.17 383.98-5.15 386.17-3.69 388.35-2.22 390.88-1.46 393.41-0.71 396.02-0.71L396.02-0.71Q398.9-0.71 401.49-1.81L401.49-1.81 401.49 0Q398.78 0.95 395.92 0.95L395.92 0.95Q392.97 0.95 390.17 0.12 387.38-0.71 385-2.33 382.62-3.96 380.81-6.16 379-8.37 377.98-11.33 376.95-14.28 376.95-17.58L376.95-17.58Q376.95-21.36 378.38-24.79 379.81-28.22 382.29-30.73 384.77-33.23 388.29-34.7 391.82-36.18 395.8-36.18L395.8-36.18Q399.85-36.18 403.42-34.81 406.98-33.45 409.57-31.02 412.16-28.59 413.65-25.05 415.14-21.51 415.14-17.33ZM432.76-15.04L432.76-16.8 443.36-16.8Q445.46-16.8 446.92-18.12 448.39-19.43 448.39-21.83L448.39-21.83Q448.39-23.58 446.86-24.98 445.33-26.37 443.36-26.37L443.36-26.37 428.27-26.37 428.27 0 426.51 0 426.51-28.13 443.36-28.13Q446.07-28.13 448.11-26.22 450.14-24.32 450.14-21.83L450.14-21.83Q450.14-18.73 448.17-16.88 446.19-15.04 443.36-15.04L443.36-15.04 432.76-15.04ZM432.76-11.52L432.76-13.28 443.36-13.28Q446.87-13.28 449.39-15.67 451.9-18.07 451.9-21.83L451.9-21.83Q451.9-25.02 449.34-27.45 446.77-29.88 443.36-29.88L443.36-29.88 424.75-29.88 424.75 0 423 0 423-31.64 443.36-31.64Q447.51-31.64 450.58-28.7 453.66-25.76 453.66-21.83L453.66-21.83Q453.66-17.43 450.62-14.48 447.58-11.52 443.36-11.52L443.36-11.52 432.76-11.52ZM432.76-8.01L432.76-9.77 443.36-9.77Q446.6-9.77 449.36-11.33 452.12-12.89 453.77-15.67 455.42-18.46 455.42-21.83L455.42-21.83Q455.42-24.88 453.78-27.55 452.15-30.22 449.35-31.81 446.56-33.4 443.36-33.4L443.36-33.4 421.24-33.4 421.24 0 419.48 0 419.48-35.16 443.36-35.16Q446.12-35.16 448.67-34.07 451.22-32.98 453.07-31.19 454.93-29.39 456.05-26.93 457.18-24.46 457.18-21.83L457.18-21.83Q457.18-17.55 455.22-14.37 453.27-11.18 449.97-9.52L449.97-9.52 453.66 0 451.78 0 448.29-8.81Q447.63-8.59 446.75-8.37L446.75-8.37 450.05 0 448.17 0 444.94-8.08Q444.19-8.01 443.36-8.01L443.36-8.01 446.46 0 444.6 0 441.53-8.01 439.94-8.01 442.89 0 441.04 0 438.06-8.01 432.76-8.01ZM431.78-22.85L431.78 0 430.03 0 430.03-24.61 443.36-24.61Q444.72-24.61 445.68-23.79 446.63-22.97 446.63-21.83L446.63-21.83Q446.63-18.55 443.36-18.55L443.36-18.55 432.76-18.55 432.76-20.31 443.36-20.31Q444.87-20.31 444.87-21.83L444.87-21.83Q444.87-22.24 444.42-22.55 443.97-22.85 443.36-22.85L443.36-22.85 431.78-22.85ZM481.34-10.55L471.6-10.55 471.6-24.61Q471.6-24.61 481.34-24.61L481.34-24.61Q484.05-24.61 485.99-22.56 487.93-20.51 487.93-17.63L487.93-17.63Q487.93-14.65 486.01-12.6 484.08-10.55 481.34-10.55L481.34-10.55ZM473.36-22.85L473.36-12.3 481.34-12.3Q483.32-12.3 484.72-13.84 486.13-15.38 486.13-17.63L486.13-17.63Q486.13-19.78 484.72-21.31 483.32-22.85 481.34-22.85L481.34-22.85 473.36-22.85ZM469.84-26.37L469.84-8.79 481.34-8.79Q484.81-8.79 487.28-11.36 489.74-13.94 489.74-17.63L489.74-17.63Q489.74-21.24 487.26-23.8 484.79-26.37 481.34-26.37L481.34-26.37 469.84-26.37ZM481.34-7.03L468.09-7.03 468.09-28.13 481.34-28.13Q485.52-28.13 488.53-25.04 491.55-21.95 491.55-17.63L491.55-17.63Q491.55-13.21 488.54-10.12 485.54-7.03 481.34-7.03L481.34-7.03ZM466.33-29.88L466.33-5.27 481.34-5.27Q484.57-5.27 487.32-6.91 490.08-8.54 491.72-11.4 493.35-14.26 493.35-17.63L493.35-17.63Q493.35-20.92 491.72-23.75 490.08-26.59 487.31-28.23 484.54-29.88 481.34-29.88L481.34-29.88 466.33-29.88ZM481.34-3.52L464.57-3.52 464.57-31.64 481.34-31.64Q485.03-31.64 488.22-29.76 491.4-27.88 493.28-24.65 495.16-21.41 495.16-17.63L495.16-17.63Q495.16-13.79 493.28-10.53 491.4-7.28 488.22-5.4 485.03-3.52 481.34-3.52L481.34-3.52ZM462.81-33.4L462.81-1.76 481.34-1.76Q485.52-1.76 489.11-3.87 492.7-5.98 494.83-9.64 496.97-13.31 496.97-17.63L496.97-17.63Q496.97-21.88 494.83-25.52 492.7-29.17 489.09-31.29 485.49-33.4 481.34-33.4L481.34-33.4 462.81-33.4ZM481.34 0L481.34 0 461.05 0 461.05-35.16 481.34-35.16Q485.98-35.16 490-32.8 494.01-30.44 496.39-26.4 498.77-22.36 498.77-17.63L498.77-17.63Q498.77-14.04 497.37-10.77 495.97-7.5 493.61-5.14 491.25-2.78 488.03-1.39 484.81 0 481.34 0Z" fill="#8f6449" data-fill-palette-color="accent"></path></g></svg></g></svg></g></svg></g></svg></g><g transform="matrix(1,0,0,1,403.3787581223788,0)"><svg viewBox="0 0 24.772213536153586 46.00553942428523" height="46.00553942428523" width="24.772213536153586"><g><svg xmlns="http://www.w3.org/2000/svg" xmlns:xlink="http://www.w3.org/1999/xlink" version="1.1" x="0" y="0" viewBox="27 9 42 78" enable-background="new 0 0 96 96" xml:space="preserve" height="46.00553942428523" width="24.772213536153586" class="icon-icon-0" data-fill-palette-color="accent" id="icon-0"><path d="M45.566 29.174c1.16-2.485 1.272-6.534 0.065-10.807-1.208-4.272-3.421-7.665-5.71-9.175-1.16 2.485-1.271 6.534-0.064 10.807C41.064 24.271 43.278 27.664 45.566 29.174zM56.346 19.797c1.051-4.313 0.791-8.356-0.458-10.797-2.232 1.593-4.321 5.063-5.372 9.377-1.051 4.313-0.792 8.356 0.457 10.797C53.205 27.581 55.295 24.11 56.346 19.797zM57 39c0-4.962-4.037-9-9-9s-9 4.038-9 9h0v3h18V39zM48.5 39c-0.829 0-1.5-0.671-1.5-1.5s0.671-1.5 1.5-1.5c0.828 0 1.5 0.671 1.5 1.5S49.328 39 48.5 39zM53.5 39c-0.828 0-1.5-0.671-1.5-1.5s0.672-1.5 1.5-1.5 1.5 0.671 1.5 1.5S54.328 39 53.5 39zM69 45H27v6h9l-3 36h30l-3-36h9V45z" fill="#8f6449" data-fill-palette-color="accent"></path></svg></g></svg></g></svg></g><defs></defs></svg><rect width="395.52" height="42.49928683475095" fill="none" stroke="none" visibility="hidden"></rect></g></svg></g></svg>